<mxfile host="Electron" modified="2025-03-02T18:08:08.122Z" agent="Mozilla/5.0 (Windows NT 10.0; Win64; x64) AppleWebKit/537.36 (KHTML, like Gecko) draw.io/24.0.4 Chrome/120.0.6099.109 Electron/28.1.0 Safari/537.36" etag="zYREtXxiD5Nehy-EnnIs" version="24.0.4" type="device">
  <diagram name="PÃ¡gina-1" id="H-N2qRpqVzHJbwBLJ-F7">
    <mxGraphModel dx="1084" dy="644" grid="1" gridSize="10" guides="1" tooltips="1" connect="1" arrows="1" fold="1" page="0" pageScale="1" pageWidth="827" pageHeight="1169" math="0" shadow="0">
      <root>
        <mxCell id="0" />
        <mxCell id="1" parent="0" />
      </root>
    </mxGraphModel>
  </diagram>
</mxfile>
